<svg viewBox="0 0 60 27" fill="none" xmlns="http://www.w3.org/2000/svg"><g clip-path="url(#a)"><path fill-rule="evenodd" clip-rule="evenodd" d="M45.687 21.231c-.264-4.189-2.882-7.831-7.232-9.895a.702.702 0 0 1 .15-1.319c.295-.065.594-.128.89-.192.003 0 .005 0 .009-.002 1.254-.267 2.463-.525 3.523-.94.762-.298.816-.606.815-.686-.001-.148-.144-.5-.786-.883-1.228-.73-3.722-1.18-6.912-.202-1.187.364-2.039.834-2.644 1.338a.704.704 0 0 1-1.06-.889c.18-.31.365-.622.55-.931v-.001c.676-1.138 1.326-2.234 1.742-3.319.295-.77.09-1.01.018-1.07-.147-.118-.571-.24-1.348-.004-1.488.452-3.623 2.063-5.093 5.142-.155.325-.284.635-.39.93a.703.703 0 0 1-1.364-.186c-.046-.664-.064-1.353-.081-2.03-.034-1.301-.07-2.56-.285-3.702-.157-.83-.457-.965-.546-.983-.136-.028-.496.028-.982.577-.933 1.05-1.827 3.42-1.445 6.798.056.49.136.932.237 1.334a.702.702 0 0 1-.394.812c-4.364 1.95-7.02 5.793-7.27 10.305h29.898v-.002z" fill="#fff"/><path d="M40.74 10.997c.944-.21 1.908-.454 2.793-.8.984-.385 1.718-1.062 1.708-2.008-.008-.88-.672-1.598-1.471-2.074-1.655-.986-4.581-1.401-8.045-.339-.268.082-.523.17-.767.264.408-.723.791-1.469 1.08-2.221.39-1.018.357-2.038-.408-2.66-.692-.564-1.707-.546-2.645-.26-1.636.497-3.6 1.946-5.135 4.392-.034-1.05-.094-2.135-.286-3.157-.198-1.047-.719-1.904-1.639-2.097-.873-.183-1.708.327-2.323 1.02-1.27 1.43-2.202 4.237-1.79 7.886.038.332.088.648.145.951-4.766 2.347-7.602 6.846-7.602 12.045 0 .387.316.702.704.702h31.347a.703.703 0 0 0 .703-.702c0-4.497-2.373-8.441-6.37-10.942zM26.548 8.128a.702.702 0 0 0 1.364.186c.105-.296.234-.606.389-.93 1.47-3.08 3.605-4.69 5.093-5.141.777-.236 1.201-.115 1.348.005.072.06.277.298-.018 1.069-.416 1.086-1.066 2.181-1.743 3.318v.001c-.184.31-.369.622-.55.932a.704.704 0 0 0 1.06.89c.606-.505 1.458-.976 2.645-1.34 3.19-.976 5.684-.528 6.912.203.642.383.785.735.786.882.001.082-.053.389-.816.687-1.059.414-2.268.673-3.522.94-.004 0-.006 0-.008.002-.297.063-.596.126-.891.192a.7.7 0 0 0-.15 1.319c4.35 2.063 6.968 5.706 7.232 9.895H15.783c.25-4.513 2.905-8.356 7.269-10.306.31-.14.477-.481.394-.812-.101-.402-.18-.844-.237-1.334-.382-3.377.512-5.746 1.445-6.798.486-.548.846-.605.982-.577.089.019.389.154.546.983.216 1.143.25 2.4.285 3.702.017.679.035 1.368.082 2.032z" fill="#0C131D"/><path d="M29.101 19.595c.89 0 1.611-1.176 1.611-2.628 0-1.451-.721-2.628-1.61-2.628-.89 0-1.612 1.177-1.612 2.628 0 1.452.721 2.628 1.611 2.628zM33.452 19.245c.623 0 1.129-.96 1.129-2.144 0-1.185-.506-2.145-1.129-2.145s-1.128.96-1.128 2.145c0 1.184.505 2.145 1.128 2.145zM11.41 25.891c-.655 0-1.264-.086-1.79-.272-1.587-.564-2.313-1.96-1.993-3.827.132-.775.742-1.437 1.719-1.862 2.171-.947 6.109-.773 9.433 1.392.31.202.41.61.229.934-1.149 2.031-4.778 3.635-7.599 3.635zm.932-5.105c-.955 0-1.799.155-2.433.43-.52.228-.846.524-.895.813-.273 1.591.485 2.055 1.078 2.266 1.942.69 5.76-.53 7.283-2.18-1.684-.931-3.5-1.329-5.033-1.329zM48.478 26.602c-1.574 0-3.742-.804-5.624-4.362a.701.701 0 0 1 .214-.899c1.324-.944 5.906-2.492 8.493-1.505.937.357 1.54 1.023 1.742 1.923.374 1.661-1.117 3.788-3.19 4.551a4.786 4.786 0 0 1-1.635.292zm-4.051-4.431c2 3.364 4.096 3.228 5.2 2.82 1.231-.452 2.536-1.892 2.303-2.927-.062-.275-.219-.67-.87-.918-.842-.322-2.254-.293-3.874.08-1.107.254-2.107.622-2.759.945z" fill="#0C131D"/><path d="M9.918 21.213c-.52.227-.847.523-.896.812-.273 1.592.485 2.056 1.078 2.267 1.942.69 5.76-.53 7.284-2.18-1.684-.931-3.5-1.33-5.033-1.33-.955 0-1.8.155-2.433.431zM49.64 24.955c1.231-.453 2.535-1.893 2.303-2.927-.062-.275-.219-.67-.87-.919-.842-.322-2.254-.292-3.874.08-1.107.254-2.107.621-2.76.944 2.001 3.365 4.097 3.23 5.2 2.822z" fill="#fff"/></g><defs><clipPath id="a"><path fill="#fff" d="M0 0h60v26.602H0z"/></clipPath></defs></svg>