<svg xmlns="http://www.w3.org/2000/svg" width="87" height="87" fill="none"><g clip-path="url(#a)"><path fill="#CFD8DD" d="m6.396 36.141-2.473.392.196 1.242 2.473-.392-.196-1.242ZM78.226 24.764l-2.473.392.197 1.242 2.473-.391-.197-1.243Z"/><path fill="url(#b)" d="m16.807 27.042-8.672 1.373s.245-1.68.832-2.035c1.39-.84 4.85-1.387 6.432-1.02.717.173 1.568 2.014 1.408 1.682Z"/><path fill="#CFD8DD" d="m13.349 25.043-2.543.402.392 2.473 2.543-.402-.392-2.473Z"/><path fill="url(#c)" d="M76.995 24.96 5.165 36.335l5.099 32.194 71.83-11.377-5.099-32.194Z"/><path fill="url(#d)" d="M80.038 60.026 13.096 70.629c-2.439.386-2.83-2.087-2.83-2.087l71.83-11.377c-.011.002.38 2.475-2.058 2.861Z"/><path fill="url(#e)" d="m75.6 16.23-2.02-.882-35.41 5.609c-6.292.996-6.68 3.736-12.717 4.692L5.24 28.85c-1.242.197-1.074 1.253-1.074 1.253l.987 6.235 71.83-11.377-1.382-8.73Z"/><path fill="#99A8AE" d="M45.143 58.971a3.374 3.374 0 0 1-6.664 1.056 3.364 3.364 0 0 1 2.806-3.848 3.356 3.356 0 0 1 3.858 2.792Z"/><path fill="#302C3B" d="M44.26 59.111a2.48 2.48 0 0 1-4.898.776 2.47 2.47 0 0 1 2.063-2.826 2.456 2.456 0 0 1 2.836 2.05Z"/><path fill="url(#f)" d="M57.507 62.273c10.6-1.678 17.83-11.631 16.152-22.23-1.679-10.6-11.632-17.83-22.23-16.152-10.6 1.679-17.831 11.632-16.152 22.23 1.678 10.6 11.631 17.831 22.23 16.152Z"/><path fill="#1A1626" d="M71.288 46.088c1.663-9.286-4.517-18.161-13.802-19.824C48.2 24.6 39.325 30.78 37.662 40.066 36 49.352 42.18 58.227 51.464 59.89c9.286 1.663 18.161-4.517 19.824-13.802Z"/><path fill="#25222E" d="M69.585 40.688c1.322 8.348-4.375 16.188-12.722 17.51-8.348 1.322-16.2-4.372-17.522-12.72-1.322-8.347 4.372-16.2 12.731-17.524 8.36-1.323 16.188 4.375 17.513 12.734Z"/><path fill="url(#g)" d="M56.587 56.457c7.386-1.17 12.426-8.107 11.256-15.493-1.17-7.387-8.107-12.426-15.493-11.256-7.387 1.17-12.426 8.106-11.256 15.492 1.17 7.387 8.106 12.427 15.493 11.257Z"/><path fill="#302C3B" d="M62.816 41.76a8.453 8.453 0 0 1-7.025 9.67 8.453 8.453 0 0 1-9.67-7.026 8.453 8.453 0 0 1 7.026-9.67 8.453 8.453 0 0 1 9.67 7.026Z" opacity=".2"/><path fill="#35313D" d="M63.188 41.701a8.824 8.824 0 0 1-7.338 10.1c-4.818.763-9.349-2.518-10.112-7.336-.763-4.818 2.52-9.337 7.35-10.102 4.816-.775 9.337 2.52 10.1 7.338Z"/><path fill="#272430" d="M61.446 41.977a7.063 7.063 0 0 1-5.873 8.083 7.063 7.063 0 0 1-8.082-5.873 7.063 7.063 0 0 1 5.872-8.082c3.853-.622 7.472 2.018 8.083 5.872Z"/><path fill="#2D2A36" d="M59.704 42.253a5.302 5.302 0 0 1-10.472 1.658 5.302 5.302 0 0 1 10.472-1.658Z"/><path fill="#35313D" d="M57.963 42.529a3.542 3.542 0 0 1-2.941 4.048 3.542 3.542 0 0 1-4.048-2.941 3.542 3.542 0 0 1 2.94-4.048 3.542 3.542 0 0 1 4.049 2.94Z"/><path fill="#1A1626" d="M55.629 42.898a1.18 1.18 0 0 1-.977 1.345 1.179 1.179 0 0 1-1.345-.977 1.179 1.179 0 0 1 .977-1.345 1.164 1.164 0 0 1 1.345.977Z"/><path fill="url(#h)" d="M26.62 32.938 5.165 36.336l5.099 32.194 21.455-3.398-5.099-32.194Z"/><path fill="url(#i)" d="m31.7 29.622 11.087-8.67-13.548 2.752 2.726-9.012-6.55 6.429-.923-11.684-3.87 10.36-9.836-9.736 5.646 13.184L3.66 21.127l11.072 7.315L3.3 32.597l11.716.786-4.546 12.324 9.386-7.913 2.31 11.797 2.533-11.505 7.08 7.662L29.822 35.5l10.453 2.2-8.575-8.079Z"/><path fill="url(#j)" d="m28.008 29.16 6.593-4.436-7.931 1.018 1.37-5.025-3.801 3.053-.86-6.41-1.966 5.775-5.088-4.776 2.93 6.558-7.328-.66 6.545 4.056-6.887 2.805 6.787.472-3.498 7.814 6.322-5.917 1.185 6.204 1.641-6.092 3.541 3.795-.863-5.147 5.537 1.444-4.229-4.532Z"/><path fill="url(#k)" d="m25.216 28.733 2.798-1.871-3.36.425.58-2.127-1.606 1.29-.37-2.715-.827 2.44-2.152-2.015 1.237 2.779-3.103-.282 2.77 1.715-2.915 1.2 2.875.199-1.476 3.304 2.674-2.506.499 2.622.685-2.584 1.506 1.619-.357-2.181 2.335.618-1.793-1.93Z"/></g><defs><linearGradient id="b" x1="7.956" x2="16.639" y1="27.281" y2="25.906" gradientUnits="userSpaceOnUse"><stop stop-color="#D6E5ED"/><stop offset=".048" stop-color="#D1E0E7"/><stop offset=".481" stop-color="#A8B2B8"/><stop offset=".812" stop-color="#8F969A"/><stop offset="1" stop-color="#858C8F"/></linearGradient><linearGradient id="c" x1="7.711" x2="79.538" y1="52.44" y2="41.063" gradientUnits="userSpaceOnUse"><stop offset=".9" stop-color="#323844"/><stop offset="1" stop-color="#1A1626"/></linearGradient><linearGradient id="d" x1="10.457" x2="82.284" y1="69.777" y2="58.401" gradientUnits="userSpaceOnUse"><stop stop-color="#7B8589"/><stop offset=".012" stop-color="#8D979B"/><stop offset=".034" stop-color="#AAB3B8"/><stop offset=".057" stop-color="#BEC8CC"/><stop offset=".079" stop-color="#CBD4D9"/><stop offset=".1" stop-color="#CFD8DD"/><stop offset=".9" stop-color="#CFD8DD"/><stop offset=".921" stop-color="#CBD4D9"/><stop offset=".943" stop-color="#BEC8CC"/><stop offset=".966" stop-color="#AAB3B8"/><stop offset=".988" stop-color="#8D979B"/><stop offset="1" stop-color="#7B8589"/></linearGradient><linearGradient id="e" x1="4.377" x2="76.203" y1="31.387" y2="20.011" gradientUnits="userSpaceOnUse"><stop stop-color="#7B8589"/><stop offset=".012" stop-color="#8D979B"/><stop offset=".034" stop-color="#AAB3B8"/><stop offset=".057" stop-color="#BEC8CC"/><stop offset=".079" stop-color="#CBD4D9"/><stop offset=".1" stop-color="#CFD8DD"/><stop offset=".9" stop-color="#CFD8DD"/><stop offset=".921" stop-color="#CBD4D9"/><stop offset=".943" stop-color="#BEC8CC"/><stop offset=".966" stop-color="#AAB3B8"/><stop offset=".988" stop-color="#8D979B"/><stop offset="1" stop-color="#7B8589"/></linearGradient><linearGradient id="g" x1="43.509" x2="65.425" y1="35.116" y2="51.039" gradientUnits="userSpaceOnUse"><stop stop-color="#302C3B"/><stop offset=".475" stop-color="#312E3D"/><stop offset=".749" stop-color="#363742"/><stop offset=".972" stop-color="#3F454B"/><stop offset="1" stop-color="#40474D"/></linearGradient><linearGradient id="h" x1="7.711" x2="29.167" y1="52.44" y2="49.041" gradientUnits="userSpaceOnUse"><stop stop-color="#302C3B"/><stop offset=".015" stop-color="#33313F"/><stop offset=".099" stop-color="#3F4551"/><stop offset=".194" stop-color="#47535D"/><stop offset=".309" stop-color="#4C5B65"/><stop offset=".5" stop-color="#4E5E67"/><stop offset=".631" stop-color="#4A5862"/><stop offset=".803" stop-color="#414853"/><stop offset=".997" stop-color="#302C3B"/><stop offset="1" stop-color="#302C3B"/></linearGradient><linearGradient id="i" x1="26.549" x2="20.162" y1="48.901" y2="8.576" gradientUnits="userSpaceOnUse"><stop stop-color="#FF4D00"/><stop offset=".299" stop-color="#FF7400"/><stop offset=".582" stop-color="#FF9200"/><stop offset=".825" stop-color="#FFA400"/><stop offset="1" stop-color="#FA0"/></linearGradient><linearGradient id="j" x1="24.894" x2="21.449" y1="39.297" y2="17.548" gradientUnits="userSpaceOnUse"><stop stop-color="#FFB500"/><stop offset=".087" stop-color="#FFBA00"/><stop offset=".674" stop-color="#FFDA00"/><stop offset="1" stop-color="#FFE600"/></linearGradient><linearGradient id="k" x1="23.901" x2="22.443" y1="33.025" y2="23.817" gradientUnits="userSpaceOnUse"><stop stop-color="#FFF1A3"/><stop offset=".16" stop-color="#FFF4B6"/><stop offset=".527" stop-color="#FFFADE"/><stop offset=".82" stop-color="#FFFEF6"/><stop offset="1" stop-color="#fff"/></linearGradient><radialGradient id="f" cx="0" cy="0" r="1" gradientTransform="rotate(-54 69.504 -31.908) scale(19.4341 116.604)" gradientUnits="userSpaceOnUse"><stop offset=".23" stop-color="#EFFAFF"/><stop offset=".369" stop-color="#E7F2F7"/><stop offset=".587" stop-color="#D1DCE1"/><stop offset=".854" stop-color="#ADB9BD"/><stop offset="1" stop-color="#96A2A6"/></radialGradient><clipPath id="a"><path fill="#fff" d="M0 11.769 74.304 0l11.768 74.304L11.77 86.073z"/></clipPath></defs></svg>