<svg width="40" height="40" fill="none" xmlns="http://www.w3.org/2000/svg"><rect width="40" height="40" rx="20" fill="#273B7D"/><path d="M27.383 27.054a2.138 2.138 0 0 1 3.325-1.79 2.146 2.146 0 0 1 .336 3.304 2.142 2.142 0 0 1-3.66-1.514Z" fill="#499FDD"/><path d="m20.403 25.978-2.987-.003v-3.577c0-.766.297-1.163.95-1.255h2.037c1.454 0 2.38.918 2.38 2.404 0 1.526-.917 2.43-2.38 2.43v.001Zm-2.987-9.653v-.942c0-.824.348-1.216 1.111-1.267h1.53c1.309 0 2.083.785 2.083 2.102 0 1.001-.54 2.172-2.05 2.172h-2.687l.013-2.065Zm6.802 3.572-.54-.305.471-.402c.55-.473 1.467-1.535 1.467-3.369 0-2.808-2.172-4.62-5.534-4.62h-4.276A1.873 1.873 0 0 0 14 13.054v15.934h6.16c3.738 0 6.151-2.039 6.151-5.198 0-1.699-.78-3.154-2.09-3.893" fill="#fff"/></svg>