<svg width="525" height="274" viewBox="0 0 525 274" fill="none" xmlns="http://www.w3.org/2000/svg">
<path fill-rule="evenodd" clip-rule="evenodd" d="M668.991 152.868C669.5 153.521 669.382 154.464 668.728 154.973C640.598 176.852 612.827 198.146 582.008 216.445C523.814 250.997 462.53 280.414 398.933 303.65C332.823 327.803 264.471 345.395 194.277 352.241C192.126 352.45 189.923 352.676 187.677 352.906C167.496 354.972 143.898 357.388 124.178 351.813C122.007 351.199 120.316 350.249 119.12 348.955C117.912 347.648 117.299 346.085 117.133 344.418C116.812 341.182 118.17 337.519 120.018 334.105C123.547 327.583 129.415 321.003 132.033 318.067C132.182 317.9 132.321 317.745 132.447 317.602C147.753 300.384 166.221 285.984 185.317 273.424C222.873 248.726 263.807 228.744 305.792 212.901C353.861 194.761 404.037 181.528 455.406 177.256C473.031 175.791 490.873 175.388 508.559 176.308C512.594 176.517 520.787 177.159 525.341 178.442C527.727 179.114 529.543 180.153 530.757 181.583C531.99 183.037 532.485 184.76 532.459 186.56C532.408 190.032 530.416 193.923 527.94 197.508C522.942 204.743 515.167 211.836 512.827 213.971L512.802 213.994C493.291 231.794 469.174 242.448 445.436 252.607C404.024 270.33 361.606 285.383 319 299.785C312.175 302.092 305.345 304.437 298.505 306.785C272.369 315.76 246.083 324.786 219.387 331.915L219.366 331.92C215.614 332.922 211.584 333.998 207.416 333.998C206.588 333.998 205.916 333.327 205.916 332.498C205.916 331.67 206.588 330.998 207.416 330.998C211.133 330.998 214.791 330.037 218.612 329.016C245.197 321.917 271.356 312.935 297.48 303.965C304.333 301.612 311.184 299.26 318.039 296.943C360.624 282.548 402.954 267.525 444.255 249.849C468.043 239.669 491.697 229.187 510.78 211.778C513.119 209.644 520.678 202.741 525.471 195.803C527.899 192.288 529.422 189.034 529.459 186.516C529.477 185.321 529.16 184.338 528.469 183.524C527.759 182.687 526.541 181.897 524.527 181.33C520.344 180.151 512.477 179.515 508.403 179.304C490.866 178.392 473.16 178.79 455.654 180.246C404.631 184.489 354.732 197.639 306.851 215.707C265.039 231.485 224.309 251.372 186.966 275.931C167.995 288.408 149.759 302.643 134.69 319.595C134.568 319.732 134.437 319.879 134.298 320.036C131.663 322.992 126.01 329.334 122.656 335.533C120.872 338.829 119.89 341.82 120.119 344.122C120.228 345.223 120.612 346.149 121.323 346.919C122.048 347.703 123.2 348.419 124.994 348.926C144.122 354.334 167.115 351.987 187.402 349.917C189.632 349.689 191.83 349.465 193.986 349.255C263.874 342.439 331.976 324.919 397.904 300.832C461.318 277.663 522.435 248.327 580.476 213.865C611.114 195.674 638.749 174.489 666.886 152.604C667.54 152.096 668.483 152.214 668.991 152.868Z" fill="white" fill-opacity="0.24"/>
<path fill-rule="evenodd" clip-rule="evenodd" d="M338.206 -6.32371C338.738 -5.68851 338.654 -4.74247 338.019 -4.21067C287.279 38.2691 230.467 76.8075 167.7 99.4703C140.504 109.29 111.518 114.775 82.5004 114.128C73.6459 113.931 64.495 112.876 56.1122 109.26C51.0386 107.071 48.1914 103.146 46.9038 98.6327C40.4401 99.6009 34.0295 100.293 27.7923 100.769C19.1616 101.429 10.5347 101.436 1.96094 101.436C1.13251 101.436 0.460938 100.764 0.460938 99.9358C0.460938 99.1074 1.13251 98.4358 1.96094 98.4358C10.5509 98.4358 19.0652 98.4271 27.5638 97.7779C33.6947 97.3096 39.9734 96.6324 46.288 95.6912C45.6367 91.0359 46.3442 86.0047 47.7121 81.559C52.5785 65.7432 67.6215 53.2252 81.237 45.4337C88.1657 41.4688 98.0267 38.0286 107.127 36.9107C111.68 36.3515 116.123 36.363 119.951 37.2323C123.782 38.1022 127.12 39.8629 129.238 42.8969C133.253 48.6491 131.464 54.8776 128.178 59.9873C124.884 65.1098 119.845 69.5457 116.397 72.2056C97.6745 86.6483 73.5531 94.3127 49.8938 98.1654C51.0157 101.798 53.3202 104.788 57.3005 106.505C65.1666 109.899 73.8709 110.935 82.5673 111.129C111.166 111.767 139.784 106.36 166.681 96.6486C228.989 74.1516 285.493 35.8519 336.093 -6.51094C336.728 -7.04274 337.674 -6.95891 338.206 -6.32371ZM49.2528 95.23C72.6611 91.4348 96.3226 83.9023 114.564 69.8302C117.915 67.2451 122.636 63.058 125.654 58.3647C128.681 53.6586 129.755 48.8785 126.778 44.6142C125.224 42.388 122.662 40.9242 119.287 40.1578C115.909 39.3908 111.839 39.3545 107.493 39.8884C98.796 40.9567 89.3163 44.2668 82.727 48.0375C69.3064 55.7175 55.1025 67.7412 50.5794 82.4412C49.3008 86.5968 48.6912 91.1494 49.2528 95.23Z" fill="white" fill-opacity="0.24"/>
</svg>
