<svg width="72" height="10" viewBox="0 0 72 10" fill="currentColor" xmlns="http://www.w3.org/2000/svg">
  <path d="M0.000115527 4.98197C0.00403687 4.71773 0.107327 4.46593 0.287315 4.28182C0.467303 4.09771 0.709285 3.99635 0.960153 3.99996L68.7668 3.99996L66.5951 1.71251C66.5044 1.61954 66.4323 1.50837 66.383 1.38555C66.3338 1.26273 66.3084 1.13076 66.3084 0.997434C66.3085 0.798979 66.3647 0.605049 66.4699 0.440435C66.5752 0.275822 66.7246 0.148007 66.8992 0.07333C67.0737 -0.00134707 67.2655 -0.0194926 67.4499 0.0212133C67.6343 0.0619193 67.803 0.159627 67.9344 0.301845L71.7227 4.29223C71.9003 4.47932 72 4.73303 72 4.99756C72 5.26209 71.9003 5.5158 71.7227 5.70289L67.9344 9.69328C67.8471 9.78902 67.7426 9.86546 67.6269 9.91812C67.5112 9.97078 67.3867 9.9986 67.2607 9.99995C67.1347 10.0013 67.0098 9.97615 66.8931 9.92598C66.7764 9.87582 66.6704 9.80163 66.5814 9.70778C66.4922 9.61393 66.4218 9.50229 66.3742 9.37941C66.3266 9.25653 66.3027 9.12487 66.304 8.99215C66.3053 8.85943 66.3317 8.72831 66.3817 8.60648C66.4316 8.48464 66.5042 8.37454 66.5951 8.28261L68.7668 5.99516L0.960153 5.99516C0.833442 5.99698 0.707672 5.97201 0.590289 5.92172C0.472907 5.87142 0.366298 5.79683 0.276779 5.70235C0.187259 5.60788 0.116647 5.49544 0.0691243 5.3717C0.021602 5.24796 -0.00186352 5.11544 0.000115527 4.98197Z" fill="#0C131D"/>
</svg>