<svg xmlns="http://www.w3.org/2000/svg" width="50" height="30" fill="none"><g fill-rule="evenodd"><path d="M0 0H50V30H0V0Z" fill="url(#A)"/><path d="M52.38 35.71c-1.466.733-3.124 1.146-4.88 1.146-4.214 0-7.867-2.38-9.658-5.855-1.096.978-2.527 1.57-4.092 1.57-3.452 0-6.25-2.878-6.25-6.428s2.798-6.43 6.25-6.43c1.565 0 2.996.592 4.092 1.57 1.79-3.475 5.443-5.855 9.658-5.855a10.84 10.84 0 0 1 9.949 6.468c1.053-.83 2.37-1.325 3.8-1.325 3.452 0 6.25 2.878 6.25 6.43s-2.798 6.43-6.25 6.43c-1.21 0-2.34-.354-3.3-.967a2.75 2.75 0 0 1 .382 1.396c0 1.657-1.492 3-3.333 3-1.063 0-2-.448-2.62-1.146z" fill="url(#B)"/><path d="M36.887 7.907c-.904-1.643-2.716-2.764-4.803-2.764-2.47 0-4.556 1.57-5.206 3.718-.534-.698-1.363-1.147-2.294-1.147-1.61 0-2.917 1.343-2.917 3s1.306 3 2.917 3c1.06 0 1.987-.58 2.498-1.45.816 1.86 2.748 3.165 5.002 3.165.646 0 1.265-.107 1.84-.304.3.2.666.304 1.077.304.92 0 1.667-.576 1.667-1.286 0-.268-.106-.517-.288-.723l.083-.105a2.84 2.84 0 0 0 1.455.4c1.61 0 2.917-1.343 2.917-3s-1.306-3-2.917-3a2.84 2.84 0 0 0-1.03.192z" fill="url(#C)"/></g><defs><linearGradient id="A" x1="50" y1="0" x2="0" y2="0" gradientUnits="userSpaceOnUse"><stop stop-color="#c9e7ff"/><stop offset="1" stop-color="#a3d4fa"/></linearGradient><linearGradient id="B" x1="68.814" y1="36.857" x2="68.814" y2="14.021" gradientUnits="userSpaceOnUse"><stop stop-color="#fff" stop-opacity=".01"/><stop offset="1" stop-color="#fff" stop-opacity=".804"/></linearGradient><linearGradient id="C" x1="24.232" y1="12.675" x2="24.232" y2="5.143" gradientUnits="userSpaceOnUse"><stop stop-color="#fff" stop-opacity=".01"/><stop offset="1" stop-color="#fff" stop-opacity=".804"/></linearGradient></defs></svg>