<svg width="40" height="40" fill="none" xmlns="http://www.w3.org/2000/svg"><g clip-path="url(#a)"><circle cx="20" cy="20" r="19.5" fill="#fff" stroke="#43536A" stroke-opacity=".08"/><g clip-path="url(#b)" fill="#006AAA"><path d="M12.045 24.79v-8.314a8.342 8.342 0 0 1 6.562-8.26 8.368 8.368 0 0 1 10.247 7.119 8.423 8.423 0 0 1-7.128 9.447 6.763 6.763 0 0 1-.953 0h-8.188l-.54.009Zm4.054-3.954h4.333a4.385 4.385 0 0 0 4.494-4.566 4.44 4.44 0 0 0-4.198-4.261 4.368 4.368 0 0 0-4.647 4.027c-.072 1.438 0 2.876 0 4.323a3.68 3.68 0 0 0 .018.477ZM18.103 28.98a2.948 2.948 0 0 1-3.056 3.011A3.047 3.047 0 0 1 12 28.961a3.11 3.11 0 0 1 3.092-3.073 3.02 3.02 0 0 1 3.011 3.092ZM28.899 28.944A3.002 3.002 0 0 1 25.906 32a3.083 3.083 0 0 1-3.12-3.03 3.119 3.119 0 0 1 3.075-3.082 3.056 3.056 0 0 1 3.038 3.056Z"/></g></g><defs><clipPath id="a"><rect width="40" height="40" rx="20" fill="#fff"/></clipPath><clipPath id="b"><path fill="#fff" transform="translate(12 8)" d="M0 0h16.926v24H0z"/></clipPath></defs></svg>