<svg xmlns="http://www.w3.org/2000/svg" xmlns:xlink="http://www.w3.org/1999/xlink" viewBox="0 0 26 44"><defs><path id="a" d="M5.478.87c1.908.183 3.75.226 5.522.13 1.87.092 3.72.056 5.55-.11A5 5 0 0 1 22 5.87V13c0 3.986-1 10.32-3 19H3c-2-8.68-3-15.014-3-19V5.846A5.002 5.002 0 0 1 5.478.869z"/></defs><g fill="none" fill-rule="evenodd"><path fill="#C1C1C1" d="M1 22.134h2V33H1zm22 0h2V33h-2z"/><rect width="4" height="7" x="3" y="3" fill="#F5A623" rx="2"/><g transform="translate(2)"><mask id="b" fill="#fff"><use xlink:href="#a"/></mask><use fill="#0C73FE" xlink:href="#a"/><path fill="#0656FE" d="M-1 12h24l-1 16H0" mask="url(#b)"/></g><path fill="#0C73FE" d="M3.703 26.6C6.803 26.2 9.9 26 13 26c3.145 0 6.29.206 9.436.618A2.424 2.424 0 0 1 24.5 29.5l-.178.892A2 2 0 0 1 22.36 32H4.354a2 2 0 0 1-1.857-1.257L2 29.5a2.127 2.127 0 0 1 1.703-2.9z"/><path fill="#F5A623" d="M7 3h12a2 2 0 0 1 2 2v3a2 2 0 0 1-2 2H7a2 2 0 0 1-2-2V5a2 2 0 0 1 2-2z"/><path fill="#D8E2E5" d="M4 33h2v10H4zm16 0h2v10h-2z"/><path fill="#C1C1C1" d="M1.293 30h23.414a1 1 0 0 1 .968 1.252l-.55 2.112a1 1 0 0 1-.82.737c-3.98.6-7.922.9-11.825.9-3.277 0-6.873-.3-10.788-.896a.999.999 0 0 1-.817-.737l-.55-2.113a1 1 0 0 1 .967-1.252z"/><rect width="4" height="3" y="20" fill="#D8D8D8" rx="1"/><rect width="4" height="3" x="22" y="20" fill="#D8D8D8" rx="1"/><path fill="#D8E2E5" d="M2 42h22a1 1 0 0 1 0 2H2a1 1 0 0 1 0-2z"/></g></svg>
