<svg xmlns="http://www.w3.org/2000/svg" width="19" height="10" viewBox="0 0 19 10" fill="currentColor">
<path d="M0.000121946 4.98197C0.00426114 4.71773 0.113289 4.46593 0.303277 4.28182C0.493265 4.09771 0.74869 3.99635 1.01349 3.99996L15.5871 3.99996L13.2948 1.71251C13.1991 1.61954 13.123 1.50837 13.071 1.38555C13.019 1.26273 12.9922 1.13076 12.9922 0.997434C12.9923 0.798979 13.0516 0.605049 13.1627 0.440435C13.2738 0.275822 13.4315 0.148007 13.6158 0.07333C13.8 -0.00134707 14.0024 -0.0194926 14.1971 0.0212133C14.3917 0.0619193 14.5698 0.159627 14.7085 0.301845L18.7073 4.29223C18.8947 4.47932 19 4.73303 19 4.99756C19 5.26209 18.8947 5.5158 18.7073 5.70289L14.7085 9.69328C14.6164 9.78902 14.506 9.86546 14.3839 9.91812C14.2618 9.97078 14.1305 9.9986 13.9975 9.99995C13.8644 10.0013 13.7325 9.97615 13.6094 9.92598C13.4862 9.87582 13.3744 9.80163 13.2803 9.70778C13.1863 9.61393 13.1119 9.50229 13.0616 9.37941C13.0114 9.25653 12.9862 9.12487 12.9875 8.99215C12.9889 8.85943 13.0168 8.72831 13.0695 8.60648C13.1223 8.48464 13.1989 8.37454 13.2948 8.28261L15.5871 5.99516L1.01349 5.99516C0.879745 5.99698 0.746987 5.97201 0.623083 5.92172C0.499179 5.87142 0.386648 5.79683 0.292155 5.70235C0.197662 5.60788 0.123127 5.49544 0.0729645 5.3717C0.0228021 5.24796 -0.00196705 5.11544 0.000121946 4.98197Z" fill="#0C131D"/>
</svg>