<svg width="172" height="64" viewBox="0 0 172 64" xmlns="http://www.w3.org/2000/svg">
<path d="M122.587 8.25549H141.678V0H122.587V8.25549ZM152.189 8.25549H171.279V0H152.203L152.189 8.25549ZM52.8314 63.9765H118.358V33.0219L105.249 40.4505L118.457 12.3809H109.173L84.5095 37.3541L91.5293 12.3809H82.226L62.1205 38.3878V12.3809H52.8314V51.5956H62.1205L77.4944 31.4808L71.5084 51.605H80.8164L99.2867 32.7212L90.2042 51.605H99.4934L109.088 46.1358V55.7304H52.8314V63.9765ZM171.293 63.9765V55.721L137.754 43.1334L171.293 38.181V29.9256L146.01 20.6364H171.293V12.3809H122.587V20.6364L155.708 32.9186L122.587 37.7676V46.0465L148.279 55.7445H122.587V64L171.293 63.9765ZM48.706 63.9765V55.721L15.1672 43.1334L48.706 38.181V29.9256L22.8024 20.6364H48.706V12.3809H0V20.6364L33.1253 32.9186L0 37.7676V46.0465L26.4157 55.7445H0V64L48.706 63.9765Z" fill="#0C131D"/>
</svg>
