<svg width="40" height="40" fill="none" xmlns="http://www.w3.org/2000/svg"><path d="M20 40c11.046 0 20-8.954 20-20S31.046 0 20 0 0 8.954 0 20s8.954 20 20 20Z" fill="#FC9700"/><path opacity=".2" d="M20 40c11.046 0 20-8.954 20-20S31.046 0 20 0 0 8.954 0 20s8.954 20 20 20Z" fill="url(#a)"/><path d="M9.334 20.17c0-.532 0-.798.105-1a.934.934 0 0 1 .398-.398c.202-.105.468-.105 1-.105h.994c.531 0 .797 0 1 .105.17.088.309.227.397.398.106.202.106.468.106 1v3.66c0 .532 0 .798-.106 1a.933.933 0 0 1-.398.398c-.202.105-.468.105-1 .105h-.994c-.531 0-.797 0-1-.105a.933.933 0 0 1-.397-.398c-.105-.202-.105-.468-.105-1v-3.66ZM9.334 28.17c0-.532 0-.798.105-1a.933.933 0 0 1 .398-.398c.202-.105.468-.105 1-.105h.994c.531 0 .797 0 1 .105.17.088.309.227.397.398.106.202.106.468.106 1v.994c0 .531 0 .797-.106 1a.933.933 0 0 1-.398.397c-.202.105-.468.105-1 .105h-.994c-.531 0-.797 0-1-.105a.933.933 0 0 1-.397-.398c-.105-.202-.105-.468-.105-1v-.994ZM14.668 16.17c0-.532 0-.798.105-1a.933.933 0 0 1 .398-.398c.202-.105.468-.105 1-.105h.994c.531 0 .797 0 1 .105.17.089.309.228.397.398.105.202.105.468.105 1v7.661c0 .532 0 .797-.105 1a.933.933 0 0 1-.398.398c-.202.105-.468.105-1 .105h-.994c-.531 0-.797 0-1-.105a.933.933 0 0 1-.397-.398c-.105-.203-.105-.468-.105-1V16.17ZM14.668 28.17c0-.532 0-.798.105-1a.933.933 0 0 1 .398-.398c.202-.105.468-.105 1-.105h.994c.531 0 .797 0 1 .105.17.088.309.227.397.398.105.202.105.468.105 1v.994c0 .531 0 .797-.105 1a.933.933 0 0 1-.398.397c-.202.105-.468.105-1 .105h-.994c-.531 0-.797 0-1-.105a.932.932 0 0 1-.397-.398c-.105-.202-.105-.468-.105-1v-.994ZM20 12.17c0-.532 0-.798.105-1a.935.935 0 0 1 .398-.398c.202-.106.468-.106 1-.106h.994c.532 0 .797 0 1 .106.17.088.31.227.398.398.105.202.105.468.105 1v11.66c0 .532 0 .798-.105 1a.933.933 0 0 1-.398.398c-.203.105-.468.105-1 .105h-.994c-.532 0-.798 0-1-.105a.934.934 0 0 1-.398-.398c-.105-.202-.105-.468-.105-1V12.17ZM20 28.17c0-.532 0-.798.105-1a.934.934 0 0 1 .398-.398c.202-.105.468-.105 1-.105h.994c.532 0 .797 0 1 .105.17.088.31.227.398.398.105.202.105.468.105 1v.994c0 .531 0 .797-.105 1a.932.932 0 0 1-.398.397c-.203.105-.468.105-1 .105h-.994c-.532 0-.798 0-1-.105a.933.933 0 0 1-.398-.398c-.105-.202-.105-.468-.105-1v-.994Z" fill="#fff"/><path opacity=".5" d="M25.333 9.503c0-.531 0-.797.105-1a.933.933 0 0 1 .398-.397c.203-.106.468-.106 1-.106h.994c.532 0 .798 0 1 .106.17.088.31.227.398.398.105.202.105.468.105 1V23.83c0 .532 0 .797-.105 1a.934.934 0 0 1-.398.398c-.202.105-.468.105-1 .105h-.994c-.532 0-.797 0-1-.105a.933.933 0 0 1-.398-.398c-.105-.203-.105-.468-.105-1V9.503Z" fill="#fff"/><path d="M25.333 28.17c0-.532 0-.798.105-1a.933.933 0 0 1 .398-.398c.203-.105.468-.105 1-.105h.994c.532 0 .798 0 1 .105.17.088.31.227.398.398.105.202.105.468.105 1v.994c0 .531 0 .797-.105 1a.933.933 0 0 1-.398.397c-.202.105-.468.105-1 .105h-.994c-.532 0-.797 0-1-.105a.932.932 0 0 1-.398-.398c-.105-.202-.105-.468-.105-1v-.994Z" fill="#fff"/><defs><linearGradient id="a" x1="20" y1="0" x2="20" y2="40" gradientUnits="userSpaceOnUse"><stop stop-color="#fff"/><stop offset="1" stop-color="#fff" stop-opacity="0"/></linearGradient></defs></svg>