<svg width="16" height="16" viewBox="0 0 16 16" fill="currentColor" xmlns="http://www.w3.org/2000/svg">
  <path d="M8 2C7.44773 2 7.00003 2.4477 7.00003 2.99997V6.99992H2.99997C2.4477 6.99992 2 7.44762 2 7.99989C2 8.55216 2.4477 8.99986 2.99997 8.99986H7.00003V12.9999C7.00003 13.5522 7.44773 13.9999 8 13.9999C8.55227 13.9999 8.99997 13.5522 8.99997 12.9999V8.99986H12.9999C13.5522 8.99986 13.9999 8.55216 13.9999 7.99989C13.9999 7.44762 13.5522 6.99992 12.9999 6.99992H8.99997V2.99997C8.99997 2.4477 8.55227 2 8 2Z" fill="inherit"/>
</svg>