<?xml version="1.0" encoding="UTF-8" standalone="no"?>
<svg width="18px" height="23px" viewBox="0 0 18 23" version="1.1" xmlns="http://www.w3.org/2000/svg" xmlns:xlink="http://www.w3.org/1999/xlink" xmlns:sketch="http://www.bohemiancoding.com/sketch/ns">
    <!-- Generator: Sketch 3.3.2 (12043) - http://www.bohemiancoding.com/sketch -->
    <title>Fill 1</title>
    <desc>Created with Sketch.</desc>
    <defs></defs>
    <g id="Dropdown-Menu" stroke="none" stroke-width="1" fill="none" fill-rule="evenodd" sketch:type="MSPage">
        <g id="Dropdown-Menu---Desktop-1134px" sketch:type="MSArtboardGroup" transform="translate(-872.000000, -256.000000)" fill="#FFFFFF">
            <g id="Dropdown-Menu" sketch:type="MSLayerGroup" transform="translate(-30.000000, 129.000000)">
                <g id="Group" transform="translate(885.000000, 38.000000)" sketch:type="MSShapeGroup">
                    <g id="icon_app_android" transform="translate(17.000000, 89.000000)">
                        <path d="M16.9998676,7.30573745 C16.4477691,7.30573745 16,7.93243976 16,8.70550644 L16,14.176468 C16,14.9497171 16.4477691,15.5766019 16.9998676,15.5766019 C17.5522309,15.5766019 18,14.9497171 18,14.176468 L18,8.70550644 C18,7.93243976 17.5522309,7.30573745 16.9998676,7.30573745 L16.9998676,7.30573745 Z M1,7.30573745 C0.447769098,7.30573745 0,7.93243976 0,8.70550644 L0,14.176468 C0,14.9497171 0.447769098,15.5766019 1,15.5766019 C1.5522309,15.5766019 2,14.9497171 2,14.176468 L2,8.70550644 C2,7.93243976 1.5522309,7.30573745 1,7.30573745 Z M2.99999999,17 C2.99999999,17.6026747 3.49392694,18.0578616 4.09090909,18.0578616 L4.90909091,18.0578616 L4.90909091,21.3662074 C4.90909091,22.1511852 5.37091249,23 6.13636364,23 C6.9019983,23 7.36363637,22.1511852 7.36363637,21.3662074 L7.36363637,18.0578616 L10.6363636,18.0578616 L10.6363636,21.3662074 C10.6363636,22.1511852 11.0981852,23 11.8636364,23 C12.629271,23 13.0909091,22.1511852 13.0909091,21.3662074 L13.0909091,18.0578616 L13.9090909,18.0578616 C14.5062566,18.0578616 15,17.6026747 15,17 L15,7.00000001 L2.99999999,7.00000001 L2.99999999,17 Z M13.0887681,0.322534074 C13.1563025,0.223416034 13.1397859,0.0931730763 13.051147,0.0316643112 C12.9628751,-0.0296591865 12.8362481,0.000724661329 12.7687137,0.100027969 L11.5852099,1.83431577 C10.8052608,1.5241782 9.93869159,1.35132375 9.02587596,1.35132375 C8.11306032,1.35132375 7.24649108,1.5241782 6.46654206,1.83431577 L5.28303823,0.100027969 C5.21532031,0.000724661329 5.08887681,-0.0296591865 5.00042141,0.0316643112 C4.91214953,0.0931730763 4.89526593,0.223416034 4.96298386,0.322534074 L6.10225998,1.99234883 C4.29094308,2.84309657 3.16149533,4.11323716 3,6 L15,6 C14.8383212,4.11323716 13.7608088,2.84309657 11.9493084,1.99234883 L13.0887681,0.322534074 Z M6.42396602,4.62370121 C6.04720476,4.62370121 5.74164826,4.31541632 5.74164826,3.93487715 C5.74164826,3.55433798 6.04720476,3.24586782 6.42396602,3.24586782 C6.80109431,3.24586782 7.10646729,3.55433798 7.10646729,3.93487715 C7.10646729,4.31541632 6.80109431,4.62370121 6.42396602,4.62370121 L6.42396602,4.62370121 Z M11.712938,4.62370121 C11.3361767,4.62370121 11.0306202,4.31541632 11.0306202,3.93487715 C11.0306202,3.55433798 11.3361767,3.24586782 11.712938,3.24586782 C12.0898828,3.24586782 12.3954393,3.55433798 12.3954393,3.93487715 C12.3954393,4.31541632 12.0898828,4.62370121 11.712938,4.62370121 L11.712938,4.62370121 Z" id="Fill-1"></path>
                    </g>
                </g>
            </g>
        </g>
    </g>
</svg>
