<?xml version="1.0" encoding="UTF-8" standalone="no"?>
<svg width="18px" height="23px" viewBox="0 0 18 23" version="1.1" xmlns="http://www.w3.org/2000/svg" xmlns:xlink="http://www.w3.org/1999/xlink" xmlns:sketch="http://www.bohemiancoding.com/sketch/ns">
    <!-- Generator: Sketch 3.4.4 (17249) - http://www.bohemiancoding.com/sketch -->
    <title>Fill 1</title>
    <desc>Created with Sketch.</desc>
    <defs></defs>
    <g id="Menu" stroke="none" stroke-width="1" fill="none" fill-rule="evenodd" sketch:type="MSPage">
        <g id="Group" sketch:type="MSLayerGroup" transform="translate(-132.000000, -306.000000)" fill="#494949">
            <g transform="translate(70.000000, 306.000000)" id="Fill-1" sketch:type="MSShapeGroup">
                <path d="M78.9998676,7.30573745 C78.4477691,7.30573745 78,7.93243976 78,8.70550644 L78,14.176468 C78,14.9497171 78.4477691,15.5766019 78.9998676,15.5766019 C79.5522309,15.5766019 80,14.9497171 80,14.176468 L80,8.70550644 C80,7.93243976 79.5522309,7.30573745 78.9998676,7.30573745 L78.9998676,7.30573745 Z M63,7.30573745 C62.4477691,7.30573745 62,7.93243976 62,8.70550644 L62,14.176468 C62,14.9497171 62.4477691,15.5766019 63,15.5766019 C63.5522309,15.5766019 64,14.9497171 64,14.176468 L64,8.70550644 C64,7.93243976 63.5522309,7.30573745 63,7.30573745 Z M65,17 C65,17.6026747 65.4939269,18.0578616 66.0909091,18.0578616 L66.9090909,18.0578616 L66.9090909,21.3662074 C66.9090909,22.1511852 67.3709125,23 68.1363636,23 C68.9019983,23 69.3636364,22.1511852 69.3636364,21.3662074 L69.3636364,18.0578616 L72.6363636,18.0578616 L72.6363636,21.3662074 C72.6363636,22.1511852 73.0981852,23 73.8636364,23 C74.629271,23 75.0909091,22.1511852 75.0909091,21.3662074 L75.0909091,18.0578616 L75.9090909,18.0578616 C76.5062566,18.0578616 77,17.6026747 77,17 L77,7.00000001 L65,7.00000001 L65,17 Z M75.0887681,0.322534074 C75.1563025,0.223416034 75.1397859,0.0931730763 75.051147,0.0316643112 C74.9628751,-0.0296591865 74.8362481,0.000724661329 74.7687137,0.100027969 L73.5852099,1.83431577 C72.8052608,1.5241782 71.9386916,1.35132375 71.025876,1.35132375 C70.1130603,1.35132375 69.2464911,1.5241782 68.4665421,1.83431577 L67.2830382,0.100027969 C67.2153203,0.000724661329 67.0888768,-0.0296591865 67.0004214,0.0316643112 C66.9121495,0.0931730763 66.8952659,0.223416034 66.9629839,0.322534074 L68.10226,1.99234883 C66.2909431,2.84309657 65.1614953,4.11323716 65,6 L77,6 C76.8383212,4.11323716 75.7608088,2.84309657 73.9493084,1.99234883 L75.0887681,0.322534074 Z M68.423966,4.62370121 C68.0472048,4.62370121 67.7416483,4.31541632 67.7416483,3.93487715 C67.7416483,3.55433798 68.0472048,3.24586782 68.423966,3.24586782 C68.8010943,3.24586782 69.1064673,3.55433798 69.1064673,3.93487715 C69.1064673,4.31541632 68.8010943,4.62370121 68.423966,4.62370121 L68.423966,4.62370121 Z M73.712938,4.62370121 C73.3361767,4.62370121 73.0306202,4.31541632 73.0306202,3.93487715 C73.0306202,3.55433798 73.3361767,3.24586782 73.712938,3.24586782 C74.0898828,3.24586782 74.3954393,3.55433798 74.3954393,3.93487715 C74.3954393,4.31541632 74.0898828,4.62370121 73.712938,4.62370121 L73.712938,4.62370121 Z"></path>
            </g>
        </g>
    </g>
</svg>