<?xml version="1.0" encoding="UTF-8" standalone="no"?>
<svg width="14px" height="17px" viewBox="0 0 14 17" version="1.1" xmlns="http://www.w3.org/2000/svg" xmlns:xlink="http://www.w3.org/1999/xlink" xmlns:sketch="http://www.bohemiancoding.com/sketch/ns">
    <!-- Generator: Sketch 3.4.2 (15857) - http://www.bohemiancoding.com/sketch -->
    <title>Page 1</title>
    <desc>Created with Sketch.</desc>
    <defs></defs>
    <g id="Responsive-Article" stroke="none" stroke-width="1" fill="none" fill-rule="evenodd" sketch:type="MSPage">
        <g id="Article-With-Icon---1024-" sketch:type="MSArtboardGroup" transform="translate(-440.000000, -369.000000)" fill="#909297">
            <g id="Post-Info" sketch:type="MSLayerGroup" transform="translate(440.000000, 369.000000)">
                <path d="M12,13.321 C12,13.321 9.5,14.654 7,14.654 C4.5,14.654 2,13.321 2,13.321 L2,11.32 C2,9.95 2.829,8.773 4.008,8.261 C4.573,8.711 5.234,9.023 5.946,9.187 C6.018,9.205 6.087,9.229 6.16,9.244 C6.217,9.254 6.277,9.254 6.334,9.261 C6.56,9.298 6.784,9.334 7.02,9.334 C7.461,9.334 7.878,9.248 8.279,9.127 C8.437,9.082 8.591,9.037 8.741,8.977 C8.773,8.963 8.805,8.948 8.837,8.933 C9.25,8.758 9.643,8.539 9.993,8.259 C11.174,8.771 12,9.945 12,11.32 L12,13.321 L12,13.321 Z M7.05,1.97 C8.431,1.97 9.55,3.164 9.55,4.636 C9.55,6.109 8.431,7.302 7.05,7.302 C5.669,7.302 4.55,6.109 4.55,4.636 C4.55,3.164 5.669,1.97 7.05,1.97 L7.05,1.97 L7.05,1.97 Z M11.108,6.592 C11.367,6.001 11.52,5.352 11.52,4.667 C11.52,2.117 9.535,0 7.02,0 C4.504,0 2.52,2.117 2.52,4.667 C2.52,5.347 2.669,5.991 2.924,6.578 C1.158,7.475 0,9.287 0,11.32 L0,13.321 C0,14.059 0.407,14.738 1.059,15.086 C1.453,15.296 2.087,15.586 2.893,15.872 C4.262,16.359 5.646,16.654 7,16.654 C8.354,16.654 9.738,16.359 11.107,15.872 C11.913,15.586 12.548,15.296 12.941,15.086 C13.593,14.738 14,14.059 14,13.321 L14,11.32 C14,9.295 12.857,7.495 11.108,6.592 L11.108,6.592 L11.108,6.592 Z" id="Page-1" sketch:type="MSShapeGroup"></path>
            </g>
        </g>
    </g>
</svg>