<?xml version="1.0" encoding="UTF-8" standalone="no"?>
<svg width="14px" height="14px" viewBox="0 0 14 14" version="1.1" xmlns="http://www.w3.org/2000/svg" xmlns:xlink="http://www.w3.org/1999/xlink" xmlns:sketch="http://www.bohemiancoding.com/sketch/ns">
    <!-- Generator: Sketch Beta 3.4.3 (16051) - http://www.bohemiancoding.com/sketch -->
    <title>Shape</title>
    <desc>Created with Sketch Beta.</desc>
    <defs></defs>
    <g id="Date-&amp;-Breadcrumbs" stroke="none" stroke-width="1" fill="none" fill-rule="evenodd" sketch:type="MSPage">
        <g id="Article-With-Icon---1280-Reedit--3-Copy" sketch:type="MSArtboardGroup" transform="translate(-663.000000, -465.000000)" fill="#909297">
            <g id="Header-With-Image" sketch:type="MSLayerGroup" transform="translate(0.000000, -1.000000)">
                <g id="Post-Info" transform="translate(663.000000, 465.000000)" sketch:type="MSShapeGroup">
                    <path d="M2,4 L2,4 L2,13 L12,13 L12,4 L2,4 L2,4 Z M11,2 L12,2 C13.1045695,2 14,2.8954305 14,4 L14,13 C14,14.1045695 13.1045695,15 12,15 L2,15 C0.8954305,15 0,14.1045695 0,13 L0,4 C0,2.8954305 0.8954305,2 2,2 L3,2 L3,1.99895656 C3,1.44724809 3.44266033,1 3.99895656,1 L5.00104344,1 C5.55275191,1 6,1.44266033 6,1.99895656 L6,2 L8,2 L8,1.99895656 C8,1.44724809 8.44266033,1 8.99895656,1 L10.0010434,1 C10.5527519,1 11,1.44266033 11,1.99895656 L11,2 Z M4,8 C4.55228475,8 5,7.55228475 5,7 C5,6.44771525 4.55228475,6 4,6 C3.44771525,6 3,6.44771525 3,7 C3,7.55228475 3.44771525,8 4,8 Z M7,8 C7.55228475,8 8,7.55228475 8,7 C8,6.44771525 7.55228475,6 7,6 C6.44771525,6 6,6.44771525 6,7 C6,7.55228475 6.44771525,8 7,8 Z M10,8 C10.5522847,8 11,7.55228475 11,7 C11,6.44771525 10.5522847,6 10,6 C9.44771525,6 9,6.44771525 9,7 C9,7.55228475 9.44771525,8 10,8 Z M4,11 C4.55228475,11 5,10.5522847 5,10 C5,9.44771525 4.55228475,9 4,9 C3.44771525,9 3,9.44771525 3,10 C3,10.5522847 3.44771525,11 4,11 Z M7,11 C7.55228475,11 8,10.5522847 8,10 C8,9.44771525 7.55228475,9 7,9 C6.44771525,9 6,9.44771525 6,10 C6,10.5522847 6.44771525,11 7,11 Z M10,11 C10.5522847,11 11,10.5522847 11,10 C11,9.44771525 10.5522847,9 10,9 C9.44771525,9 9,9.44771525 9,10 C9,10.5522847 9.44771525,11 10,11 Z" id="Shape"></path>
                </g>
            </g>
        </g>
    </g>
</svg>