<svg xmlns="http://www.w3.org/2000/svg" width="50" height="30" fill="none"><mask id="A" mask-type="alpha" maskUnits="userSpaceOnUse" x="0" y="0" width="50" height="30"><path fill-rule="evenodd" d="M0 0H50V30H0V0Z" fill="url(#B)"/></mask><g mask="url(#A)" fill-rule="evenodd"><path d="M0 0H50V30H0V0Z" fill="url(#B)"/><path d="M.94 21.546C-1.056 17.107-5.65 14-11 14c-5.057 0-9.44 2.777-11.59 6.83A7.47 7.47 0 0 0-27.5 19a7.5 7.5 0 1 0 0 15 7.47 7.47 0 0 0 4.911-1.831C-20.44 36.223-16.057 39-11 39a13.37 13.37 0 0 0 5.855-1.337C-4.412 38.477-3.276 39-2 39c2.21 0 4-1.567 4-3.5 0-.588-.166-1.142-.458-1.63C2.7 34.587 4.047 35 5.5 35a7.5 7.5 0 1 0 0-15c-1.716 0-3.297.576-4.56 1.546z" fill="url(#C)"/><path d="M22.57 7.363C21.735 5.387 19.78 4 17.5 4c-2.51 0-4.625 1.68-5.286 3.976A2.99 2.99 0 0 0 10 7a3 3 0 1 0 0 6c1.02 0 1.92-.51 2.463-1.287A5.5 5.5 0 0 0 17.5 15c.708 0 1.384-.134 2.006-.377.265.235.613.377.994.377a1.5 1.5 0 0 0 1.5-1.5c0-.23-.052-.447-.144-.642a5.52 5.52 0 0 0 .326-.471c.504.385 1.134.613 1.818.613a3 3 0 1 0 0-6c-.518 0-1.006.13-1.43.363z" fill="url(#D)"/><path d="M-.67 8.33l-1.062 4.206-1.062-4.206L-7 7.268l4.206-1.062L-1.732 2-.67 6.206l4.206 1.062L-.67 8.33z" fill="url(#E)"/><g fill="#fff"><path d="M17.444 20.444l-.578 2.288-.578-2.288L14 19.866l2.288-.578.578-2.288.578 2.288 2.288.578-2.288.578z"/><path d="M23 2a1 1 0 1 0 0-2 1 1 0 1 0 0 2zM5 15a1 1 0 1 0 0-2 1 1 0 1 0 0 2z" fill-opacity=".6"/><path d="M10 2a1 1 0 1 0 0-2 1 1 0 1 0 0 2zm16.5 15a.5.5 0 1 0 0-1 .5.5 0 1 0 0 1z" fill-opacity=".35"/></g></g><defs><linearGradient id="B" x1="25" y1="45" x2="51.471" y2=".882" gradientUnits="userSpaceOnUse"><stop stop-color="#493ad6"/><stop offset="1" stop-color="#a12eb4"/></linearGradient><linearGradient id="C" x1="-28.575" y1="32.307" x2="-28.575" y2="14" gradientUnits="userSpaceOnUse"><stop stop-color="#fff" stop-opacity=".01"/><stop offset="1" stop-color="#fff" stop-opacity=".5"/></linearGradient><linearGradient id="D" x1="9.677" y1="12.055" x2="9.677" y2="4" gradientUnits="userSpaceOnUse"><stop stop-color="#fff" stop-opacity=".01"/><stop offset="1" stop-color="#fff" stop-opacity=".25"/></linearGradient><linearGradient id="E" x1="2.488" y1="12.536" x2="2.488" y2="4.095" gradientUnits="userSpaceOnUse"><stop stop-color="#fff" stop-opacity=".01"/><stop offset="1" stop-color="#fff" stop-opacity=".5"/></linearGradient></defs></svg>