<svg width="206" height="56" viewBox="0 0 206 56" xmlns="http://www.w3.org/2000/svg">
<path d="M89.6306 55.4998C105.805 55.4998 117.135 43.2183 117.135 28.1522C117.135 13.086 105.805 0.799805 89.6306 0.799805C73.4557 0.799805 62.1216 13.0813 62.1216 28.1522C62.1216 43.223 73.4557 55.4998 89.6306 55.4998ZM0 53.9523H8.75647L23.781 17.3147L28.8471 53.9523H37.0918L47.2896 25.0524L48.4212 53.9523H57.1776L55.1165 2.34734H47.083L34.7442 37.3386L29.9786 2.34734H22.0672L9.58282 32.6913L10.7144 2.34734H1.95788L0 53.9523ZM205.117 53.9523V45.6972L171.636 33.1052L205.117 28.1522V19.8924L179.98 10.6071H205.117V2.34734H156.49V10.6071L189.562 22.9075L156.49 27.7382V35.9933L182.247 45.6972H156.49V53.9523H205.117ZM124.243 53.9523H133L143.329 17.8274L145.184 29.1823L153.011 28.0487L148.869 2.34734H140.521L131.662 33.3122L129.807 2.34734H121.051L124.243 53.9523ZM89.6306 47.1412C78.9162 47.1412 71.0847 38.5757 71.0847 28.1522C71.0847 17.7286 78.9162 9.15838 89.6306 9.15838C100.345 9.15838 108.172 17.7333 108.172 28.1522C108.172 38.571 100.345 47.1412 89.6306 47.1412Z" fill="#0C131D"/>
</svg>
