<svg width="50" height="118" viewBox="0 0 50 118" fill="none" xmlns="http://www.w3.org/2000/svg">
<path d="M36.7838 1.38398C36.4447 0.94802 35.8165 0.869457 35.3805 1.20851C34.9445 1.54756 34.866 2.17583 35.205 2.61179L36.7838 1.38398ZM0.0957002 115.004C-0.00415509 115.547 0.355232 116.068 0.898415 116.168L9.75009 117.796C10.2933 117.895 10.8146 117.536 10.9144 116.993C11.0143 116.45 10.6549 115.928 10.1117 115.828L2.24354 114.382L3.68997 106.514C3.78983 105.971 3.43044 105.449 2.88726 105.35C2.34408 105.25 1.82279 105.609 1.72294 106.152L0.0957002 115.004ZM35.205 2.61179C54.161 26.9862 55.5047 76.4477 0.511614 114.361L1.64682 116.008C57.4192 77.5571 56.5645 26.8187 36.7838 1.38398L35.205 2.61179Z" fill="#0C131D"/>
</svg>
