<svg width="40" height="40" fill="none" xmlns="http://www.w3.org/2000/svg"><g clip-path="url(#a)"><circle cx="20" cy="20" r="19.5" fill="#fff" stroke="#43536A" stroke-opacity=".08"/><path fill-rule="evenodd" clip-rule="evenodd" d="M16.357 23.489a.871.871 0 0 1 .971-.756l.194.024c1.647.206 3.313.206 4.96 0l.194-.024a.871.871 0 1 1 .216 1.73l-.194.025c-1.79.224-3.602.224-5.392 0l-.194-.025a.87.87 0 0 1-.754-.973l-.001-.001Zm12.86-1.111a1.565 1.565 0 1 1-3.129 0 1.565 1.565 0 1 1 3.13 0ZM13.1 17.626v-.004.004Zm13.824.057v-.004.004Zm-13.007 4.694a1.565 1.565 0 0 1-3.13 0 1.566 1.566 0 1 1 3.129 0Zm2.318-9.627c1.11-.162 2.473-.31 3.768-.31 1.294 0 2.657.147 3.767.31.933.138 1.727.82 2.066 1.797l1.033 2.972c-.911.37-2.918.9-6.85.844-3.88-.055-5.908-.546-6.865-.895l1.015-2.921c.34-.977 1.133-1.66 2.065-1.797ZM20.002 10c-1.46 0-2.952.164-4.123.337-1.915.282-3.4 1.657-4.01 3.407l-1.063 3.064-.01.03-1.989-.534a.52.52 0 0 0-.639.369l-.09.337a2.267 2.267 0 0 0 1.492 2.744v3.42c-.003.513.116 1.02.348 1.478v3.478c0 .578.467 1.047 1.042 1.047h2.087c.576 0 1.043-.468 1.043-1.047v-1.644c1.406.123 3.826.218 5.912.244 2.087.027 4.507-.043 5.912-.16v1.56c0 .578.467 1.047 1.043 1.047h2.087c.576 0 1.042-.468 1.042-1.047v-3.334a3.17 3.17 0 0 0 .349-1.467V19.73a2.268 2.268 0 0 0 1.488-2.743l-.09-.337a.519.519 0 0 0-.639-.37l-1.993.535-1.066-3.07c-.608-1.75-2.095-3.126-4.01-3.408-1.171-.173-2.664-.337-4.122-.337Z" fill="#FBB216"/></g><defs><clipPath id="a"><rect width="40" height="40" rx="20" fill="#fff"/></clipPath></defs></svg>