<svg xmlns="http://www.w3.org/2000/svg" xmlns:xlink="http://www.w3.org/1999/xlink" viewBox="0 0 26 43"><defs><path id="a" d="M5.01 23.283l.013.144a1.504 1.504 0 0 0 1.876 1.304l13.05-3.48c.55-.14.89-.72.74-1.28l-.08-.24c-.17-.5-.68-.8-1.19-.7L6.44 21.39c-.91.164-1.53.993-1.44 1.905z"/></defs><g fill="none" fill-rule="evenodd"><rect width="4" height="7" x="3" y="2" fill="#F5A623" rx="2"/><path fill="#0C73FE" d="M9.488 27.26l-.177-.224c-.67-4.44-1.32-7.754-1.94-9.94-.58-2.075-1.42-4.33-2.52-6.768a2.098 2.098 0 0 1-.17-.82V2c0-1.105-.89-2-2-2H2a2 2 0 0 0-2 2v7.94l3.205 14.6 2.778 6.894c.315.782.996 1.34 1.798 1.51l.01.056.19-.022c.11.015.22.022.33.022h5.71l-.52-.666 10.128-1.182a2 2 0 0 0 1.683-1.408l.4-1.322a1.997 1.997 0 0 0-1.926-2.573c-6.517.05-10.81.31-12.872.78-.54.12-1.01.33-1.41.62z"/><path fill="#959AA5" d="M8 31h11v5H8z"/><path fill="#D8E2E5" d="M4 42l2.842-10H11L6.58 42"/><path fill="#D8E2E5" d="M1 41h23v2H1z"/><path fill="#D8E2E5" d="M21 42h-2.8L17 31.263 21 30"/><path fill="#C1C1C1" d="M9.333 29.98l15.48-1c.583 0 1.055.473 1.055 1.056v.498c0 .523-.383.967-.9 1.044L12.263 34.47c-1.886.28-4.792-.354-6.133-1.71C3.377 29.98 3 28.114 3 27.167c0-1.173 1.055-3.23 3.166-4.167l2.11.704-.775 3.064c-.17.683.03 1.407.53 1.906l1.31 1.306z"/><use fill="#D8E2E5" xlink:href="#a"/></g></svg>
