<?xml version="1.0" encoding="UTF-8" standalone="no"?>
<svg width="18px" height="22px" viewBox="0 0 18 22" version="1.1" xmlns="http://www.w3.org/2000/svg" xmlns:xlink="http://www.w3.org/1999/xlink" xmlns:sketch="http://www.bohemiancoding.com/sketch/ns">
    <!-- Generator: Sketch 3.4.4 (17249) - http://www.bohemiancoding.com/sketch -->
    <title>Fill 1</title>
    <desc>Created with Sketch.</desc>
    <defs></defs>
    <g id="Menu" stroke="none" stroke-width="1" fill="none" fill-rule="evenodd" sketch:type="MSPage">
        <g id="Group" sketch:type="MSLayerGroup" transform="translate(-70.000000, -306.000000)" fill="#494949">
            <g transform="translate(70.000000, 306.000000)" id="Fill-1" sketch:type="MSShapeGroup">
                <path d="M15.0338316,11.6879634 C15.0075241,8.90416862 17.3166034,7.56594304 17.4221921,7.50120363 C16.1106446,5.58020431 14.0860448,5.36789711 13.3727534,5.31541535 C11.5532324,5.18117627 10.0087441,6.32732572 9.14753285,6.32732572 C8.27316787,6.32732572 6.92598572,5.34433387 5.49701121,5.37111028 C3.62128786,5.39848173 1.89204935,6.4578756 0.924771125,8.12931876 C-1.02389569,11.4951733 0.427320588,16.4830834 2.32552488,19.2147534 C3.25334188,20.5496468 4.36124554,22.0532911 5.81557089,21.9985482 C7.21512884,21.9441624 7.74522457,21.0981468 9.43727388,21.0981468 C11.1286057,21.0981468 11.6057277,21.9985482 13.0861214,21.9714148 C14.5929421,21.9441624 15.5475449,20.60915 16.4691438,19.2668782 C17.5354338,17.7178925 17.9742904,16.2178184 18,16.1389172 C17.9663982,16.1268976 15.0632481,15.0175211 15.0338316,11.6879634 Z M12.2496631,3.51247026 C13.0226247,2.58279322 13.5427953,1.28800493 13.4000175,0 C12.2869719,0.0439133161 10.9418226,0.737719909 10.1436297,1.6666829 C9.42926205,2.48984932 8.80158949,3.80808185 8.97222937,5.06919136 C10.21179,5.16499141 11.4776581,4.4423853 12.2496631,3.51247026 Z"></path>
            </g>
        </g>
    </g>
</svg>