<?xml version="1.0" encoding="UTF-8" standalone="no"?>
<svg width="14px" height="23px" viewBox="0 0 14 23" version="1.1" xmlns="http://www.w3.org/2000/svg" xmlns:xlink="http://www.w3.org/1999/xlink" xmlns:sketch="http://www.bohemiancoding.com/sketch/ns">
    <!-- Generator: Sketch 3.3.2 (12043) - http://www.bohemiancoding.com/sketch -->
    <title>Imported Layers</title>
    <desc>Created with Sketch.</desc>
    <defs></defs>
    <g id="Dropdown-Menu" stroke="none" stroke-width="1" fill="none" fill-rule="evenodd" sketch:type="MSPage">
        <g id="Dropdown-Menu---Desktop-1134px" sketch:type="MSArtboardGroup" transform="translate(-875.000000, -333.000000)" fill="#FFFFFF">
            <g id="Dropdown-Menu" sketch:type="MSLayerGroup" transform="translate(-30.000000, 129.000000)">
                <g id="Group" transform="translate(885.000000, 38.000000)" sketch:type="MSShapeGroup">
                    <g id="icon_app_wp-copy" transform="translate(20.000000, 166.000000)">
                        <path d="M11.6461321,0 L2.32924528,0 C1.0429434,0 0,1.11131818 0,2.4819292 L0,20.4851591 C0,21.85575 1.0429434,22.9670682 2.32924528,22.9670682 L11.6461321,22.9670682 C12.9324151,22.9670682 13.9753585,21.85575 13.9753585,20.4851591 L13.9753585,2.4819292 C13.9753585,1.11131818 12.9324151,0 11.6461321,0 L11.6461321,0 Z M6.98767925,21 C6.39667925,21 5.90998113,20.5483911 5.90998113,20 C5.90998113,19.4516265 6.39667925,19 6.98767925,19 C7.57867925,19 8.06537736,19.4516265 8.06537736,20 C8.06537736,20.5483911 7.57867925,21 6.98767925,21 L6.98767925,21 Z M1,4 L13,4 L13,17 L1,17 L1,4 Z" id="Imported-Layers"></path>
                    </g>
                </g>
            </g>
        </g>
    </g>
</svg>
