<?xml version="1.0" encoding="UTF-8" standalone="no"?>
<svg width="24px" height="19px" viewBox="0 0 24 19" version="1.1" xmlns="http://www.w3.org/2000/svg" xmlns:xlink="http://www.w3.org/1999/xlink" xmlns:sketch="http://www.bohemiancoding.com/sketch/ns">
    <!-- Generator: Sketch 3.4 (15588) - http://www.bohemiancoding.com/sketch -->
    <title>Path</title>
    <desc>Created with Sketch.</desc>
    <defs></defs>
    <g id="Responsive-Article" stroke="none" stroke-width="1" fill="none" fill-rule="evenodd" sketch:type="MSPage">
        <g id="Article---1134" sketch:type="MSArtboardGroup" transform="translate(-308.000000, -2283.000000)" fill="#909297">
            <g id="Path-+-Ценности,-которые-се" sketch:type="MSLayerGroup" transform="translate(308.000000, 2275.000000)">
                <path d="M10.4539877,14.6946286 C10.4539877,10.609748 7.87730061,8.56730769 4.85889571,8.56730769 C1.76687117,8.56730769 0,10.6778294 0,13.0606764 C0,15.7158488 2.13496933,17.4178824 4.49079755,17.4178824 C4.71165644,17.4178824 4.85889571,17.4178824 5.3006135,17.3498011 L5.52147239,17.3498011 C5.74233129,17.3498011 5.88957055,17.4178824 5.88957055,17.6902078 L5.88957055,17.8263705 C5.81595092,18.8475906 5.22699387,19.8688108 4.56441718,20.5496242 C3.6809816,21.4346817 2.50306748,22.3197392 1.32515337,23.0005526 C0.809815951,23.3409593 0.588957055,23.8856101 0.588957055,24.4302608 C0.588957055,24.8387489 0.736196319,25.1791556 0.883435583,25.5195623 C1.25153374,25.9961317 1.91411043,26.3365385 2.57668712,26.3365385 C2.94478528,26.3365385 3.2392638,26.2684571 3.53374233,26.0642131 C5.37423313,24.9068302 7.36196319,23.4090407 8.61349693,21.3666004 C9.71779141,19.6645668 10.4539877,17.2817197 10.4539877,14.6946286 Z M24,14.6946286 C24,10.609748 21.4233129,8.56730769 18.404908,8.56730769 C15.3128834,8.56730769 13.5460123,10.6778294 13.5460123,13.0606764 C13.5460123,15.7158488 15.6809816,17.4178824 18.0368098,17.4178824 C18.2576687,17.4178824 18.404908,17.4178824 18.8466258,17.3498011 L19.0674847,17.3498011 C19.2883436,17.3498011 19.4355828,17.4178824 19.4355828,17.6902078 L19.4355828,17.8263705 C19.3619632,18.8475906 18.7730061,19.8688108 18.1104294,20.5496242 C17.2269939,21.4346817 16.0490798,22.3197392 14.8711656,23.0005526 C14.3558282,23.3409593 14.1349693,23.8856101 14.1349693,24.4302608 C14.1349693,24.8387489 14.2822086,25.1791556 14.4294479,25.5195623 C14.797546,25.9961317 15.4601227,26.3365385 16.1226994,26.3365385 C16.4907975,26.3365385 16.7852761,26.2684571 17.0797546,26.0642131 C18.9202454,24.9068302 20.9079755,23.4090407 22.1595092,21.3666004 C23.2638037,19.6645668 24,17.2817197 24,14.6946286 Z" id="Path" sketch:type="MSShapeGroup"></path>
            </g>
        </g>
    </g>
</svg>