<svg width="12" height="12" viewBox="0 0 12 12" fill="none" xmlns="http://www.w3.org/2000/svg">
  <path fill-rule="evenodd" clip-rule="evenodd" d="M7.41466 7.40306L6.97923 7.71113C6.3898 8.12817 5.67517 8.37524 4.90069 8.37524C2.92938 8.37524 1.33333 6.77615 1.33333 4.85429C1.33333 2.93242 2.92938 1.33333 4.90069 1.33333C6.872 1.33333 8.46805 2.93242 8.46805 4.85429C8.46805 5.64941 8.19894 6.38294 7.73743 6.98322L7.41466 7.40306ZM11.7961 10.7754L8.79448 7.7959C9.42539 6.97528 9.80138 5.95897 9.80138 4.85429C9.80138 2.18411 7.59639 0 4.90069 0C2.20499 0 0 2.18411 0 4.85429C0 7.52446 2.20499 9.70857 4.90069 9.70857C5.96495 9.70857 6.94636 9.3677 7.74934 8.79958L10.77 11.7917C10.9102 11.9306 11.0951 12 11.2926 12C11.7069 12 12 11.6844 12 11.2804C12 11.091 11.9363 10.9143 11.7961 10.7754Z" fill="#9EA9B7"/>
</svg>
