<svg width="25" height="6" viewBox="0 0 25 6" xmlns="http://www.w3.org/2000/svg" xmlns:xlink="http://www.w3.org/1999/xlink"><defs><path id="a" d="M0 0h26v6H0z"/></defs><g transform="translate(-1)" fill="none" fill-rule="evenodd"><mask id="b" fill="#fff"><use xlink:href="#a"/></mask><use xlink:href="#a"/><path d="M38.006 0C39.65 0 41-1.346 41-3.007v-42.986C41-47.653 39.66-49 38.006-49h-159.012c-1.644 0-2.994 1.346-2.994 3.007v42.986c0 1.66 1.34 3.007 2.994 3.007H1.636C4.95 0 9.54 1.904 11.882 4.246l.91.91c.39.39 1.023.393 1.415 0l.91-.91C17.464 1.9 22.056 0 25.366 0h12.64z" fill-opacity=".97" fill="#052640" mask="url(#b)"/></g></svg>
